# Blender v2.82 (sub 7) OBJ File: ''
# www.blender.org
mtllib Block.mtl
o Cube
v 0.100000 0.100000 -0.100000
v 0.100000 -0.100000 -0.100000
v 0.100000 0.100000 0.100000
v 0.100000 -0.100000 0.100000
v -0.100000 0.100000 -0.100000
v -0.100000 -0.100000 -0.100000
v -0.100000 0.100000 0.100000
v -0.100000 -0.100000 0.100000
v 0.000000 0.100000 0.100000
v 0.100000 0.100000 0.000000
v -0.100000 0.100000 0.000000
v 0.000000 0.100000 -0.100000
v 0.000000 0.262976 0.000000
vt 0.750000 0.625000
vt 0.875000 0.625000
vt 0.875000 0.750000
vt 0.750000 0.750000
vt 0.375000 0.750000
vt 0.625000 0.750000
vt 0.625000 0.875000
vt 0.625000 1.000000
vt 0.375000 1.000000
vt 0.375000 0.000000
vt 0.625000 0.000000
vt 0.625000 0.125000
vt 0.625000 0.250000
vt 0.375000 0.250000
vt 0.125000 0.500000
vt 0.375000 0.500000
vt 0.125000 0.750000
vt 0.625000 0.500000
vt 0.625000 0.625000
vt 0.625000 0.375000
vt 0.750000 0.500000
vt 0.875000 0.500000
vn -0.5341 0.6554 0.5341
vn 0.0000 0.0000 1.0000
vn -1.0000 0.0000 0.0000
vn 0.0000 -1.0000 0.0000
vn 1.0000 0.0000 0.0000
vn 0.0000 0.0000 -1.0000
vn 0.5341 0.6554 0.5341
vn 0.5341 0.6554 -0.5341
vn -0.5341 0.6554 -0.5341
usemtl Material
s off
f 13/1/1 11/2/1 7/3/1 9/4/1
f 4/5/2 3/6/2 9/7/2 7/8/2 8/9/2
f 8/10/3 7/11/3 11/12/3 5/13/3 6/14/3
f 6/15/4 2/16/4 4/5/4 8/17/4
f 2/16/5 1/18/5 10/19/5 3/6/5 4/5/5
f 6/14/6 5/13/6 12/20/6 1/18/6 2/16/6
f 10/19/7 13/1/7 9/4/7 3/6/7
f 1/18/8 12/21/8 13/1/8 10/19/8
f 12/21/9 5/22/9 11/2/9 13/1/9
